<svg width="341" height="339" viewBox="0 0 341 339" fill="none" xmlns="http://www.w3.org/2000/svg">
<mask id="mask0_402_168" style="mask-type:alpha" maskUnits="userSpaceOnUse" x="0" y="0" width="341" height="339">
<rect width="341" height="338.355" rx="20" fill="url(#paint0_linear_402_168)"/>
</mask>
<g mask="url(#mask0_402_168)">
<rect width="341" height="338.355" rx="20" fill="#324646"/>
<path d="M199.188 -90.6633C159.519 -65.8347 145.797 -25.6124 143.511 -18.9087C116.145 65.5222 186.84 161.43 273.405 187.406C285.381 190.977 373.141 217.172 432.369 161.477C472.314 123.829 480.201 66.8267 472.948 28.4977C452.662 -80.7174 290.781 -147.806 199.188 -90.6633Z" stroke="#ACACAC" stroke-opacity="0.15" stroke-width="1.58525" stroke-miterlimit="10"/>
<path d="M218.96 -109.199C180.109 -82.1846 165.451 -39.9665 163.146 -32.8906C133.625 55.6391 197.193 153.02 278.466 177.222C289.707 180.645 372.174 205.064 430.865 145.313C470.392 104.903 480.164 45.4858 474.926 5.84891C459.92 -106.88 308.407 -171.615 218.96 -109.199Z" stroke="#ACACAC" stroke-opacity="0.15" stroke-width="1.58525" stroke-miterlimit="10"/>
<path d="M262.233 -111.661C228.592 -84.909 214.419 -44.9423 212.123 -38.0525C183.297 45.8952 231.618 134.673 298.091 154.24C307.235 156.933 374.806 176.815 426.459 118.626C461.287 79.3801 472.281 23.3349 469.781 -13.5636C462.638 -118.431 339.675 -173.378 262.233 -111.661Z" stroke="#ACACAC" stroke-opacity="0.15" stroke-width="1.58525" stroke-miterlimit="10"/>
<path d="M303.221 -111.13C276.926 -88.3682 264.943 -55.0076 262.986 -49.3413C238.586 20.4642 272.718 92.5129 322.737 107.156C329.685 109.218 380.439 124.01 421.338 74.8073C448.992 41.6767 458.939 -4.66511 458.158 -35.1547C455.727 -121.237 363.867 -163.649 303.221 -111.13Z" stroke="#ACACAC" stroke-opacity="0.15" stroke-width="1.58525" stroke-miterlimit="10"/>
<path d="M323.426 -88.5804C302.947 -70.7516 293.563 -44.7599 292.044 -40.4148C272.968 13.9967 299.543 70.2806 338.498 81.6775C343.898 83.1682 383.49 94.8113 415.393 56.5483C436.922 30.779 444.688 -5.4311 444.117 -29.0646C442.324 -96.5278 370.68 -129.474 323.426 -88.5804Z" stroke="#ACACAC" stroke-opacity="0.15" stroke-width="1.58525" stroke-miterlimit="10"/>
<path d="M339.74 -112.137C319.261 -94.3083 309.877 -68.3166 308.358 -63.9715C289.37 -9.47167 315.955 46.6262 354.91 58.023C360.31 59.5137 399.902 71.1568 431.805 32.8938C453.334 7.12451 461.099 -29.0856 460.529 -52.7191C458.824 -120.094 387.091 -153.128 339.74 -112.137Z" stroke="#ACACAC" stroke-opacity="0.15" stroke-width="1.58525" stroke-miterlimit="10"/>
<path d="M350.369 -133.367C329.89 -115.538 320.505 -89.5464 318.987 -85.2013C299.998 -30.7014 326.584 25.3964 365.539 36.7933C370.938 38.284 410.53 49.927 442.433 11.664C463.962 -14.1052 471.728 -50.3153 471.157 -73.9489C469.365 -141.412 397.632 -174.446 350.369 -133.367Z" stroke="#ACACAC" stroke-opacity="0.15" stroke-width="1.58525" stroke-miterlimit="10"/>
<path d="M267.912 116.047C275.126 136.747 303.894 138.543 308.331 138.876C325.355 139.873 344.577 134.078 345.124 128.761C345.68 123.258 325.185 124.849 302.028 109.315C284.168 97.3174 279.136 84.8585 272.874 87.5871C266.63 89.9435 264.107 105.011 267.912 116.047Z" stroke="#ACACAC" stroke-opacity="0.15" stroke-width="1.58525" stroke-miterlimit="10"/>
<path d="M131.696 347.711C144.925 322.788 139.964 297.649 139.137 293.459C127.973 241.123 62.1453 212.356 9.11366 224.889C1.78371 226.634 -51.9378 239.414 -66.0742 286.351C-75.582 318.051 -62.5158 350.193 -47.1738 368.02C-3.65607 418.932 101.096 405.161 131.696 347.711Z" stroke="#ACACAC" stroke-opacity="0.15" stroke-width="1.58525" stroke-miterlimit="10"/>
<path d="M126.96 363.35C139.103 337.532 134.028 311.069 133.099 306.679C121.825 251.553 59.2747 219.868 9.54153 231.732C2.64006 233.334 -47.783 245.444 -60.4159 294.337C-68.8729 327.354 -56.0629 361.325 -41.3785 380.443C0.44111 434.782 99.0708 422.907 126.96 363.35Z" stroke="#ACACAC" stroke-opacity="0.15" stroke-width="1.58525" stroke-miterlimit="10"/>
<path d="M105.106 377.681C114.608 353.571 109.959 328.429 109.081 324.139C98.8254 271.615 46.8306 239.826 6.22212 249.649C0.635729 250.999 -40.6411 260.988 -50.0696 306.944C-56.4245 337.936 -45.2689 370.515 -32.84 389.028C2.50432 441.632 83.2754 433.254 105.106 377.681Z" stroke="#ACACAC" stroke-opacity="0.15" stroke-width="1.58525" stroke-miterlimit="10"/>
<path d="M83.5444 389.761C90.4127 369.948 86.6127 348.916 85.9259 345.368C77.6226 301.562 38.0799 274.231 7.54738 281.664C3.29763 282.682 -27.6633 290.259 -34.1861 328.28C-38.6379 353.917 -29.8612 381.113 -20.2615 396.798C6.95901 441.014 67.7104 435.467 83.5444 389.761Z" stroke="#ACACAC" stroke-opacity="0.15" stroke-width="1.58525" stroke-miterlimit="10"/>
<path d="M66.1961 384.077C71.5145 368.594 68.5789 352.193 68.0618 349.467C61.6196 315.304 30.7749 293.927 6.99842 299.719C3.72958 300.569 -20.4539 306.425 -25.5771 336.022C-29.0501 355.968 -22.1888 377.217 -14.766 389.385C6.50812 424.071 53.8502 419.676 66.1961 384.077Z" stroke="#ACACAC" stroke-opacity="0.15" stroke-width="1.58525" stroke-miterlimit="10"/>
<path d="M64.7792 401.296C70.0977 385.813 67.1621 369.412 66.645 366.685C60.1301 332.503 29.3366 311.226 5.56003 317.019C2.29119 317.868 -21.8923 323.724 -27.0155 353.321C-30.4885 373.267 -23.6272 394.516 -16.2044 406.684C4.99697 441.351 52.4118 436.975 64.7792 401.296Z" stroke="#ACACAC" stroke-opacity="0.15" stroke-width="1.58525" stroke-miterlimit="10"/>
<path d="M65.6295 415.585C70.9479 400.102 68.0123 383.701 67.4952 380.975C60.9803 346.793 30.1868 325.515 6.41025 331.308C3.14141 332.157 -21.042 338.014 -26.1653 367.611C-29.6383 387.557 -22.777 408.805 -15.3542 420.974C5.91995 455.66 53.3348 451.284 65.6295 415.585Z" stroke="#ACACAC" stroke-opacity="0.15" stroke-width="1.58525" stroke-miterlimit="10"/>
<path d="M33.4948 260.494C23.4873 251.86 7.92425 259.594 5.50692 260.758C-3.68272 265.37 -11.9728 274.191 -10.6553 277.132C-9.28673 280.173 0.935271 273.164 17.7101 274.294C30.6529 275.174 37.0363 280.162 39.4835 276.85C42.0331 273.737 38.8084 265.109 33.4948 260.494Z" stroke="#ACACAC" stroke-opacity="0.15" stroke-width="1.58525" stroke-miterlimit="10"/>
</g>
<defs>
<linearGradient id="paint0_linear_402_168" x1="171.676" y1="-56.0957" x2="192.613" y2="380.058" gradientUnits="userSpaceOnUse">
<stop stop-color="#9C2CF3"/>
<stop offset="1" stop-color="#3A49F9"/>
</linearGradient>
</defs>
</svg>
